<?xml version="1.0" encoding="iso-8859-1"?>
<!-- Generator: Adobe Illustrator 19.1.1, SVG Export Plug-In . SVG Version: 6.00 Build 0)  -->
<svg version="1.1"  xmlns="http://www.w3.org/2000/svg" xmlns:xlink="http://www.w3.org/1999/xlink" x="0px" y="0px"
	 viewBox="0 0 48 48" style="enable-background:new 0 0 48 48;" xml:space="preserve">
<polyline style="fill:none;stroke:#BCAAA4;stroke-width:2;stroke-linejoin:round;stroke-miterlimit:10;" points="6,21 24,7 42,21 
	"/>
<g>
	<rect x="3" y="20" style="fill:#DD2C00;" width="42" height="22"/>
</g>
<g>
	<rect x="5" y="22" style="fill:#FF5722;" width="38" height="18"/>
</g>
<polygon style="fill:#FFFFFF;" points="15,34.323 17,34.323 17,36 13,36 13,26 15,26 "/>
<path style="fill:#FFFFFF;" d="M28.134,33.313c0-0.395-0.095-0.697-0.286-0.9c-0.19-0.202-0.537-0.412-1.039-0.63
	c-0.917-0.371-1.577-0.804-1.979-1.301c-0.402-0.498-0.603-1.085-0.603-1.763c0-0.819,0.273-1.478,0.819-1.975
	C25.592,26.248,26.287,26,27.129,26c0.561,0,1.062,0.126,1.502,0.378c0.44,0.252,0.778,0.607,1.014,1.066
	C29.882,27.902,30,28.425,30,29.008L28,29c0-0.455-0.092-0.8-0.274-1.039c-0.182-0.239-0.286-0.349-0.629-0.349
	c-0.323,0-0.574,0.099-0.754,0.304c-0.18,0.203-0.27,0.476-0.27,0.818c0,0.268,0.101,0.509,0.302,0.725
	c0.201,0.216,0.556,0.441,1.068,0.672c0.892,0.342,1.54,0.764,1.944,1.262c0.405,0.5,0.613,1.134,0.613,1.906
	c0,0.848-0.26,1.509-0.767,1.986C28.726,35.761,28.037,36,27.166,36c-0.591,0-1.129-0.13-1.615-0.388
	c-0.486-0.258-0.866-0.628-1.141-1.11C24.137,34.021,24,33.452,24,32.799h1.853c0,0.561,0.102,0.968,0.308,1.222
	c0.205,0.253,0.54,0.382,1.005,0.382C27.811,34.403,28.134,34.04,28.134,33.313z"/>
<path style="fill:#FFFFFF;" d="M22.188,27.108C21.655,26.369,20.926,26,20,26c-0.941,0-1.677,0.374-2.206,1.127
	C17.264,27.877,17,28.922,17,30.259v1.664c0.007,1.289,0.278,2.29,0.811,3.004c0.533,0.714,1.266,1.073,2.2,1.073
	c0.937,0,1.669-0.361,2.197-1.083C22.736,34.195,23,33.181,23,31.875v-1.664C22.992,28.88,22.722,27.845,22.188,27.108z
	 M20.997,31.936c-0.003,0.829-0.085,1.44-0.247,1.833c-0.162,0.397-0.41,0.592-0.742,0.592c-0.345,0-0.599-0.201-0.764-0.604
	c-0.165-0.405-0.247-1.031-0.247-1.883v-1.73c0.006-0.842,0.089-1.471,0.252-1.883c0.162-0.411,0.412-0.617,0.751-0.617
	c0.341,0,0.593,0.214,0.755,0.641c0.162,0.429,0.243,1.082,0.243,1.958V31.936z"/>
<polygon style="fill:#FFFFFF;" points="35,31.693 33.01,31.693 33.01,34.331 35,34.331 35,36 31,36 31,26 35,26 35,27.676 
	33.01,27.676 33.01,30 35,30 "/>
<circle style="fill:#37474F;" cx="24" cy="8" r="2"/>
<path style="fill:#FFFFFF;" d="M36,36V26h2.165c1.162,0,2.089,0.416,2.779,1.154c0.69,0.738,1.042,1.75,1.056,3.035v1.613
	c0,1.307-0.345,2.334-1.035,3.08C40.274,35.629,39.323,36,38.11,36H36z M38.01,27.723v6.609h0.135c0.67,0,1.142-0.176,1.415-0.531
	c0.273-0.352,0.417-0.961,0.431-1.828v-1.729c0-0.93-0.13-1.578-0.39-1.943c-0.26-0.367-0.701-0.561-1.326-0.578H38.01z"/>
<path style="fill:#FFFFFF;" d="M9.98,32.516c-0.032,0.54-0.109,0.958-0.23,1.254c-0.162,0.397-0.41,0.592-0.742,0.592
	c-0.345,0-0.599-0.201-0.764-0.604c-0.165-0.405-0.247-1.031-0.247-1.883v-1.73c0.006-0.842,0.089-1.471,0.252-1.883
	c0.162-0.411,0.412-0.617,0.751-0.617c0.341,0,0.592,0.214,0.755,0.641c0.115,0.305,0.188,0.729,0.221,1.262h1.986
	c-0.083-1.011-0.333-1.832-0.773-2.439C10.655,26.369,9.926,26,9,26c-0.941,0-1.677,0.374-2.206,1.127
	C6.264,27.877,6,28.922,6,30.259v1.664c0.007,1.289,0.278,2.29,0.811,3.004C7.344,35.641,8.078,36,9.011,36
	c0.937,0,1.669-0.361,2.197-1.083c0.437-0.597,0.682-1.405,0.758-2.401H9.98z"/>
</svg>
