<?xml version="1.0" encoding="iso-8859-1"?>
<!-- Generator: Adobe Illustrator 19.1.1, SVG Export Plug-In . SVG Version: 6.00 Build 0)  -->
<svg version="1.1" id="Layer_1" xmlns="http://www.w3.org/2000/svg" xmlns:xlink="http://www.w3.org/1999/xlink" x="0px" y="0px"
	 viewBox="0 0 48 48" style="enable-background:new 0 0 48 48;" xml:space="preserve">
<polyline style="fill:none;stroke:#BCAAA4;stroke-width:2;stroke-linejoin:round;stroke-miterlimit:10;" points="6,21 24,7 42,21 
	"/>
<g>
	<rect x="3" y="20" style="fill:#689F38;" width="42" height="22"/>
</g>
<g>
	<rect x="5" y="22" style="fill:#8BC34A;" width="38" height="18"/>
</g>
<circle style="fill:#37474F;" cx="24" cy="8" r="2"/>
<path style="fill:#FFFFFF;" d="M16.041,31.875c0,1.306-0.308,2.32-0.924,3.042C14.502,35.639,13.648,36,12.554,36
	c-1.09,0-1.945-0.359-2.567-1.073c-0.623-0.714-0.938-1.715-0.947-3.004v-1.664c0-1.337,0.309-2.382,0.927-3.132
	C10.585,26.374,11.443,26,12.541,26c1.08,0,1.93,0.369,2.553,1.108c0.622,0.737,0.937,1.772,0.947,3.104V31.875z M14.074,30.244
	c0-0.877-0.125-1.53-0.373-1.959c-0.249-0.427-0.636-0.641-1.16-0.641c-0.52,0-0.905,0.206-1.153,0.617
	c-0.25,0.412-0.378,1.041-0.387,1.883v1.73c0,0.852,0.127,1.478,0.38,1.883c0.253,0.403,0.644,0.604,1.173,0.604
	c0.51,0,0.89-0.195,1.14-0.592c0.249-0.393,0.375-1.005,0.38-1.833V30.244z M30.182,31.693h-3.131v2.638h3.99V36h-6V26h6v1.676
	h-3.99V30h3.131V31.693z M19.01,32.453v3.5H17V26h3.391c0.984,0,1.769,0.305,2.354,0.916c0.586,0.611,0.879,1.404,0.879,2.379
	c0,0.975-0.29,1.744-0.868,2.31c-0.579,0.565-1.381,0.848-2.406,0.848H19.01z M19.01,30.777h1.381c0.383,0,0.679-0.125,0.889-0.375
	c0.209-0.25,0.314-0.615,0.314-1.094c0-0.496-0.107-0.892-0.321-1.186c-0.215-0.295-0.502-0.443-0.861-0.447H19.01V30.777z
	 M39,35.953h-2.01l-2.939-6.527v6.527h-2.01V26h2.01l2.946,6.535V26H39V35.953z"/>
</svg>
