<svg fill="#99f500" width="156px" height="81px" viewBox="0 0 312 162" xmlns="http://www.w3.org/2000/svg">
    <g stroke="none" stroke-width="1" fill-rule="evenodd">
        <path d="M56.3,118.5 L56,118.5 C54.5,124.5 42.8,161.6 42.8,161.6 L0,161.6 L35.1,78 L1.7,0 L45.4,0 C45.4,0 54.7,32.1 56.2,38.3 L56.6,38.3 C57.9,32.2 65.8,0 65.8,0 L110,0 L76.9,78 L112.6,161.6 L69.1,161.6 C69.1,161.6 57.9,124.5 56.3,118.5 L56.3,118.5 Z M189.5,161.6 L233.1,161.6 L197.3,77.9 L230.4,0 L186.3,0 C186.3,0 178.4,32 177.1,38.2 L176.7,38.2 C175.1,32.1 165.8,0 165.8,0 L122,0 L155.4,77.9 L120.3,161.6 L163.1,161.6 C163.1,161.6 174.8,124.4 176.3,118.4 L176.7,118.4 C178.3,124.4 189.5,161.6 189.5,161.6 L189.5,161.6 Z M312,161.6 L312,123.3 L282.5,123.3 L282.5,0 L243.2,0 L243.2,161.5 L312,161.6 L312,161.6 L312,161.6 Z"></path>
    </g>
</svg>